HIERARCHY
ROOT Hips
{
	OFFSET 0.00000 0.00000 0.00000
	CHANNELS 6 Xposition Yposition Zposition Yrotation Zrotation Xrotation 
	JOINT Lumbar
	{
		OFFSET 0 0 0
		CHANNELS 3 Zrotation Xrotation Yrotation
		JOINT Neck
		{
			OFFSET 0.00 0.2701 0.00
			CHANNELS 3 Zrotation Xrotation Yrotation
			End Site
			{
				OFFSET 0.00 0.1379 0.00
			}
		}
		JOINT RightShoulder
		{
			OFFSET 0.0119 0.2289 0.1181
			CHANNELS 3 Zrotation Xrotation Yrotation
			JOINT RightElbow
			{
				OFFSET 0.00 -0.1475 0.00
				CHANNELS 2 Zrotation Yrotation
				JOINT RightWrist
				{
					OFFSET 0.00 -0.1605 0.00
					CHANNELS 2 Zrotation Xrotation
					End Site
					{
						OFFSET 0.0040 -0.1068 0.0006
					}
				}
			}
		}
		JOINT LeftShoulder
		{
			OFFSET 0.0119 0.2289 -0.1181
			CHANNELS 3 Zrotation Xrotation Yrotation
			JOINT LeftElbow
			{
				OFFSET 0.00 -0.1475 0.00
				CHANNELS 2 Zrotation Yrotation
				JOINT LeftWrist
				{
					OFFSET 0.00 -0.1605 0.00
					CHANNELS 2 Zrotation Xrotation
					End Site
					{
						OFFSET 0.0040 -0.1068 -0.0006
					}
				}
			}
		}
	}
	JOINT RightHip
	{
		OFFSET 0.0316 -0.0424 0.0458
		CHANNELS 3 Zrotation Xrotation Yrotation
		JOINT RightKnee
		{
			OFFSET 0.00 -0.2438 0.00
			CHANNELS 1 Zrotation
			JOINT RightAnkle
			{
				OFFSET 0.00 -0.2449 0.00
				CHANNELS 3 Zrotation Xrotation Yrotation
				End Site
				{
					OFFSET 0.1237 -0.0542 0.0051
				}
			}
		}
	}
	JOINT LeftHip
	{
		OFFSET 0.0316 -0.0424 -0.0458
		CHANNELS 3 Zrotation Xrotation Yrotation
		JOINT LeftKnee
		{
			OFFSET 0.00 -0.2438 0.00
			CHANNELS 1 Zrotation
			JOINT LeftAnkle
			{
				OFFSET 0.00 -0.2449 0.00
				CHANNELS 3 Zrotation Xrotation Yrotation
				End Site
				{
					OFFSET 0.1237 -0.0542 -0.0051
				}
			}
		}
	}
}
MOTION
Frames: 30
Frame Time: 0.02
0.0001 9e-05 8e-05 -180.43671 -39.76658 -3.59204 45.90945 3.26509 -2.65497 -12.03857 -3.1136 -0.16267 49.30787 -108.3295 64.16987 8.7471 88.57237 10.81962 -1.76651 29.62537 106.42373 -64.16339 9.19587 -88.27246 7.14805 1.4336 45.77327 -4.40337 1.67038 -21.87225 -7.46229 -4.27304 -2.91091 49.45072 11.33008 -0.93526 -27.23448 -7.11511 2.76066 2.0937
-0.00019 6e-05 7e-05 -180.40679 -39.75508 -3.59013 45.92671 3.25794 -2.64582 -12.05237 -3.09996 -0.16323 49.44769 -108.31716 64.16987 8.7339 88.56446 10.85045 -1.76879 29.71746 106.42418 -64.16407 9.18472 -88.26315 7.16637 1.43361 45.7068 -4.54061 0.93564 -21.87134 -7.42706 -4.18352 -2.86272 49.40618 11.29227 -1.10475 -27.23418 -7.11381 2.78317 2.10566
-0.00048 4e-05 5e-05 -180.37692 -39.74361 -3.58822 45.94392 3.25081 -2.6367 -12.06614 -3.08636 -0.16379 49.58717 -108.3048 64.16987 8.72073 88.55658 10.88121 -1.77107 29.80944 106.42459 -64.16475 9.17358 -88.25385 7.18468 1.43358 45.64048 -4.67734 0.20366 -21.87043 -7.39195 -4.09433 -2.8147 49.36174 11.25459 -1.27357 -27.23388 -7.11252 2.80559 2.11757
-0.00076 1e-05 4e-05 -180.34709 -39.73214 -3.58631 45.96113 3.24368 -2.62758 -12.0799 -3.07276 -0.16435 49.72657 -108.29249 64.16987 8.70757 88.54868 10.91195 -1.77334 29.90128 106.42504 -64.16543 9.16246 -88.24456 7.20295 1.43358 45.5742 -4.81415 -0.52872 -21.86952 -7.35683 -4.0051 -2.76667 49.31733 11.2169 -1.4425 -27.23358 -7.11122 2.82803 2.12949
-0.00105 -1e-05 2e-05 -180.31721 -39.72066 -3.58442 45.97838 3.23653 -2.61844 -12.09367 -3.05913 -0.16491 49.86631 -108.28021 64.16986 8.6944 88.54075 10.94275 -1.77562 29.99315 106.42555 -64.1661 9.15135 -88.23528 7.22121 1.43362 45.50778 -4.95149 -1.26408 -21.8686 -7.32158 -3.91551 -2.71843 49.27284 11.17906 -1.61218 -27.23328 -7.10993 2.85056 2.14147
-0.00134 -4e-05 1e-05 -180.28736 -39.70919 -3.58244 45.9955 3.22943 -2.60935 -12.10743 -3.04559 -0.16547 50.00523 -108.2677 64.16986 8.68122 88.53298 10.97342 -1.77787 30.08536 106.42575 -64.16678 9.14015 -88.22596 7.2396 1.43346 45.44171 -5.08695 -1.98894 -21.8677 -7.28677 -3.82716 -2.6709 49.22853 11.14171 -1.77922 -27.23299 -7.10861 2.87273 2.15323
-0.00163 -7e-05 -1e-05 -180.2575 -39.6977 -3.58064 46.01287 3.22224 -2.60017 -12.1212 -3.03189 -0.16604 50.1456 -108.25567 64.16986 8.66807 88.52489 11.00432 -1.78019 30.17678 106.42658 -64.16746 9.12912 -88.21671 7.25772 1.43371 45.37499 -5.22601 -2.73396 -21.86678 -7.25111 -3.73644 -2.622 49.18389 11.10345 -1.95129 -27.23268 -7.10735 2.8956 2.16541
-0.00192 -9e-05 -3e-05 -180.22764 -39.68624 -3.57868 46.03 3.21513 -2.59107 -12.13497 -3.01833 -0.16659 50.28473 -108.24318 64.16986 8.65489 88.51709 11.03501 -1.78244 30.26892 106.42683 -64.16814 9.11795 -88.2074 7.27608 1.43358 45.30887 -5.36182 -3.46069 -21.86588 -7.21623 -3.64788 -2.57435 49.13957 11.06599 -2.11889 -27.23239 -7.10604 2.91785 2.17722
-0.00221 -0.00012 -4e-05 -180.19777 -39.67479 -3.57652 46.04688 3.20812 -2.58207 -12.14874 -3.00496 -0.16713 50.422 -108.2302 64.16986 8.64168 88.50966 11.06544 -1.78464 30.36206 106.42634 -64.1688 9.10656 -88.198 7.2948 1.43295 45.24346 -5.49345 -4.16408 -21.86499 -7.18232 -3.56201 -2.52827 49.09556 11.02966 -2.28038 -27.2321 -7.10466 2.93926 2.18854
-0.00251 -0.00015 -6e-05 -180.16795 -39.66317 -3.57546 46.06533 3.20056 -2.57251 -12.1625 -2.99056 -0.16776 50.56896 -108.22023 64.16986 8.62867 88.50015 11.09738 -1.78721 30.44983 106.42999 -64.16954 9.0963 -88.18906 7.31164 1.43509 45.17388 -5.64851 -4.99885 -21.86397 -7.14288 -3.46081 -2.47331 49.04953 10.98725 -2.47511 -27.23173 -7.10365 2.96526 2.20253
-0.00278 -0.00017 -6e-05 -180.13802 -39.65198 -3.57212 46.08039 3.19415 -2.56411 -12.17626 -2.97829 -0.16821 50.69608 -108.20381 64.16986 8.61521 88.49501 11.12612 -1.78894 30.54866 106.42499 -64.17011 9.08376 -88.17918 7.33233 1.43148 45.11319 -5.75451 -5.5583 -21.86328 -7.11507 -3.39184 -2.43698 49.0079 10.95739 -2.60091 -27.23158 -7.10187 2.98171 2.21098
-0.00298 -0.00018 -2e-05 -180.10779 -39.64156 -3.56233 46.08672 3.19087 -2.55896 -12.19032 -2.97221 -0.16811 50.76357 -108.17016 64.16986 8.60075 88.50226 11.14607 -1.78873 30.68058 106.39548 -64.17023 9.06382 -88.1665 7.36466 1.41117 45.07635 -5.72146 -5.33888 -21.86312 -7.11988 -3.41328 -2.45321 48.97742 10.96469 -2.52582 -27.23179 -7.09778 2.97043 2.20329
-0.00315 -0.00019 5e-05 -180.07745 -39.63165 -3.55029 46.08955 3.18873 -2.55494 -12.20434 -2.96822 -0.16784 50.81219 -108.12991 64.16986 8.58578 88.51382 11.16281 -1.78759 30.82317 106.35741 -64.17017 9.04178 -88.15292 7.40067 1.38525 45.04857 -5.6399 -4.84706 -21.86333 -7.13625 -3.46673 -2.4879 48.95155 10.98412 -2.38359 -27.23227 -7.09295 2.9498 2.19021
-0.00333 -0.00021 0.0001 -180.04713 -39.62174 -3.5394 46.0936 3.18605 -2.55033 -12.21818 -2.96306 -0.16767 50.8727 -108.09238 64.16986 8.57093 88.52316 11.18102 -1.78665 30.95902 106.32376 -64.1702 9.02146 -88.13992 7.43425 1.36253 45.01695 -5.5835 -4.49547 -21.86362 -7.14687 -3.50425 -2.5132 48.92413 10.9962 -2.27988 -27.23281 -7.08859 2.93444 2.18023
-0.00352 -0.00022 0.00016 -180.01689 -39.61077 -3.52796 46.09917 3.18345 -2.54608 -12.2328 -2.9588 -0.16743 50.91879 -108.05612 64.16984 8.55663 88.53365 11.19918 -1.7867 31.10263 106.28792 -64.17021 8.998 -88.1262 7.47093 1.3371 44.98404 -5.51409 -4.075 -21.86293 -7.15957 -3.54764 -2.54271 48.89433 11.01593 -2.14265 -27.23264 -7.08367 2.91482 2.16751
-0.00369 -0.00023 0.00022 -179.98654 -39.60222 -3.51718 46.10076 3.18099 -2.54129 -12.24584 -2.95318 -0.16728 50.99093 -108.0155 64.16988 8.54099 88.54276 11.21666 -1.78439 31.23293 106.25455 -64.17021 8.98047 -88.11374 7.50215 1.31591 44.95613 -5.46001 -3.7321 -21.86429 -7.17071 -3.58645 -2.56789 48.8707 11.02275 -2.0588 -27.23396 -7.07973 2.90179 2.15917
-0.00379 -0.00024 0.00028 -179.95505 -39.5994 -3.50831 46.09221 3.17832 -2.53523 -12.25426 -2.94314 -0.16743 51.13516 -107.96587 64.17011 8.52261 88.54697 11.23323 -1.77655 31.32112 106.2306 -64.17022 8.98078 -88.1052 7.51653 1.30866 44.93853 -5.46281 -3.68275 -21.87185 -7.17435 -3.60402 -2.57609 48.86194 10.98959 -2.14357 -27.23958 -7.07872 2.90982 2.16462
-0.00387 -0.00026 0.00035 -179.9236 -39.59913 -3.50027 46.07977 3.17581 -2.52852 -12.26114 -2.93167 -0.16768 51.3069 -107.91188 64.1704 8.50278 88.54964 11.24919 -1.76625 31.39608 106.20937 -64.17022 8.98696 -88.09789 7.52548 1.30575 44.9259 -5.48227 -3.71881 -21.88134 -7.17608 -3.61599 -2.57939 48.85943 10.94324 -2.28352 -27.24663 -7.07872 2.9247 2.17459
-0.00395 -0.00027 0.00041 -179.89273 -39.59819 -3.49217 46.06911 3.17343 -2.52178 -12.26892 -2.92093 -0.16789 51.46922 -107.85889 64.17065 8.48306 88.55304 11.26532 -1.75656 31.47885 106.18656 -64.17022 8.9898 -88.08985 7.53745 1.30029 44.91184 -5.49229 -3.7072 -21.88954 -7.17896 -3.63103 -2.58529 48.85473 10.90382 -2.39505 -27.25284 -7.07824 2.93606 2.18224
-0.00404 -0.00029 0.00048 -179.85941 -39.59517 -3.48272 46.05829 3.17027 -2.5164 -12.27589 -2.90994 -0.16807 51.61864 -107.80954 64.17095 8.46556 88.55653 11.2818 -1.74891 31.55428 106.16482 -64.17022 8.99536 -88.08254 7.54713 1.29701 44.89456 -5.50831 -3.72249 -21.89948 -7.1811 -3.64505 -2.59027 48.8474 10.86093 -2.51829 -27.25986 -7.0778 2.94879 2.19083
-0.00411 -0.0003 0.00055 -179.83112 -39.59711 -3.47624 46.0469 3.16872 -2.50807 -12.28415 -2.89912 -0.16834 51.80076 -107.75202 64.17117 8.44319 88.55935 11.29746 -1.73653 31.64186 106.14171 -64.17023 8.99673 -88.07399 7.56037 1.29036 44.88507 -5.51669 -3.7068 -21.90627 -7.18412 -3.65935 -2.59572 48.84701 10.82192 -2.63121 -27.26554 -7.07753 2.96046 2.19861
-0.00413 -0.0003 0.00063 -179.81745 -39.61197 -3.47821 46.03527 3.17182 -2.49126 -12.29653 -2.88896 -0.16881 52.07444 -107.66998 64.17117 8.40691 88.56091 11.31093 -1.71101 31.76484 106.11339 -64.17023 8.98482 -88.06178 7.58346 1.27284 44.89578 -5.49768 -3.57518 -21.90375 -7.19027 -3.6765 -2.60417 48.86391 10.79737 -2.7015 -27.26708 -7.07744 2.96731 2.20295
-0.00413 -0.0003 0.00071 -179.80871 -39.63174 -3.48307 46.02315 3.17649 -2.47157 -12.31025 -2.87905 -0.16935 52.37854 -107.5805 64.17108 8.36596 88.56173 11.32361 -1.68097 31.90056 106.0838 -64.17024 8.96856 -88.04825 7.61046 1.2519 44.91414 -5.47099 -3.41233 -21.89801 -7.19726 -3.69386 -2.6131 48.88762 10.77701 -2.75996 -27.26724 -7.07749 2.97293 2.20635
-0.00414 -0.00029 0.0008 -179.79723 -39.64936 -3.48634 46.01105 3.18031 -2.45352 -12.32318 -2.86912 -0.16986 52.66375 -107.49643 64.17103 8.32766 88.56273 11.33675 -1.65343 32.03148 106.05532 -64.17026 8.95446 -88.0353 7.63661 1.2329 44.92904 -5.44958 -3.27171 -21.89384 -7.20362 -3.71048 -2.62137 48.90844 10.75431 -2.82461 -27.26806 -7.07752 2.97929 2.21025
-0.00415 -0.00029 0.00088 -179.78786 -39.66678 -3.49082 45.99969 3.18473 -2.43407 -12.3367 -2.85875 -0.1704 52.9719 -107.40352 64.17098 8.28697 88.56446 11.34955 -1.62385 32.15839 106.02461 -64.17024 8.93975 -88.02256 7.65897 1.21245 44.94407 -5.42141 -3.101 -21.88929 -7.21093 -3.72957 -2.63128 48.92864 10.73298 -2.8877 -27.26877 -7.0774 2.98513 2.21404
-0.00415 -0.00028 0.00097 -179.77527 -39.68569 -3.49346 45.9867 3.18823 -2.41685 -12.34948 -2.84935 -0.17088 53.23839 -107.32748 64.1709 8.25031 88.56435 11.36275 -1.59756 32.29606 105.9983 -64.17027 8.92525 -88.00893 7.68984 1.19412 44.96054 -5.405 -2.98315 -21.88475 -7.21653 -3.74374 -2.63803 48.95163 10.70998 -2.9505 -27.26938 -7.07762 2.99164 2.21775
-0.00414 -0.00028 0.00106 -179.75266 -39.70795 -3.49023 45.96953 3.18913 -2.40645 -12.35883 -2.84285 -0.17116 53.38881 -107.29844 64.17071 8.22521 88.55974 11.37817 -1.58052 32.46706 105.98344 -64.17045 8.91223 -87.99433 7.74623 1.1828 44.97949 -5.42531 -3.03071 -21.88094 -7.21665 -3.7432 -2.6351 48.98102 10.6813 -3.01517 -27.26988 -7.07878 3.0006 2.22151
-0.00411 -0.00027 0.00117 -179.72667 -39.73143 -3.48509 45.95072 3.18897 -2.39839 -12.36766 -2.83728 -0.17138 53.49503 -107.28686 64.17047 8.20476 88.55246 11.39366 -1.56697 32.64721 105.97321 -64.17051 8.8997 -87.9787 7.81036 1.1737 44.99953 -5.45722 -3.13014 -21.87728 -7.2151 -3.7379 -2.62913 49.01289 10.65092 -3.07958 -27.27036 -7.08026 3.01017 2.22519
-0.00409 -0.00026 0.00126 -179.70212 -39.75407 -3.48087 45.93254 3.18909 -2.38931 -12.37737 -2.83115 -0.17163 53.61699 -107.2683 64.17028 8.18229 88.54709 11.40879 -1.55267 32.81889 105.96149 -64.17084 8.88688 -87.96275 7.86924 1.16328 45.0188 -5.48212 -3.19743 -21.8736 -7.21466 -3.73552 -2.62516 49.04336 10.62137 -3.14415 -27.27096 -7.08155 3.01923 2.22886
-0.00407 -0.00026 0.00137 -179.67798 -39.77813 -3.47649 45.91482 3.19019 -2.37998 -12.38419 -2.82563 -0.17185 53.75794 -107.24566 64.17002 8.15809 88.54187 11.4261 -1.53535 33.00941 105.94712 -64.17098 8.87373 -87.94992 7.93624 1.1538 45.03948 -5.51396 -3.29903 -21.86955 -7.21279 -3.73003 -2.61868 49.07525 10.59153 -3.20876 -27.27103 -7.08303 3.02925 2.23272
